M48
; DRILL file {KiCad 9.0.6} date 2025-11-17T01:56:41-0500
; FORMAT={-:-/ absolute / metric / decimal}
; #@! TF.CreationDate,2025-11-17T01:56:41-05:00
; #@! TF.GenerationSoftware,Kicad,Pcbnew,9.0.6
; #@! TF.FileFunction,Plated,1,2,PTH
FMAT,2
METRIC
; #@! TA.AperFunction,Plated,PTH,ComponentDrill
T1C0.200
; #@! TA.AperFunction,Plated,PTH,ViaDrill
T2C0.400
; #@! TA.AperFunction,Plated,PTH,ComponentDrill
T3C0.800
; #@! TA.AperFunction,Plated,PTH,ComponentDrill
T4C1.000
%
G90
G05
T1
X89.15Y-86.95
X89.15Y-88.35
X89.85Y-86.25
X89.85Y-87.65
X89.85Y-89.05
X90.55Y-86.95
X90.55Y-88.35
X91.25Y-86.25
X91.25Y-87.65
X91.25Y-89.05
X91.95Y-86.95
X91.95Y-88.35
T2
X67.1Y-125.7
X71.9Y-102.2
X73.0Y-94.8
X73.0Y-100.85
X73.0Y-125.1
X74.6Y-111.7
X75.0Y-99.5
X79.3Y-126.7
X79.45Y-89.15
X80.9Y-112.6
X81.2Y-85.6
X81.6Y-86.825
X81.6Y-109.8
X82.0Y-94.4
X82.2Y-102.1
X84.8Y-81.7
X85.0Y-102.0
X85.065Y-97.69
X86.5Y-112.64
X87.605Y-97.69
X88.1Y-100.0
X88.875Y-97.69
X89.6Y-104.6
X89.7Y-128.2
X89.7Y-131.6
X91.415Y-97.69
X91.5Y-99.8
X93.052Y-125.422
X96.1Y-87.2
X98.4Y-125.3
X100.1Y-105.7
X100.9Y-103.5
X101.3Y-127.2
X102.0Y-101.2
X102.4Y-111.7
X102.5Y-98.7
X103.8Y-109.5
X103.9Y-80.2
X104.1Y-120.3
X111.1Y-86.6
X112.4Y-105.9
X115.2Y-117.2
X121.6Y-81.125
X122.65Y-120.1
X122.65Y-122.3
X122.906Y-104.059
X122.906Y-105.859
X127.968Y-93.498
X131.2Y-112.6
X131.756Y-107.859
X132.475Y-126.875
X132.5Y-111.2
X133.656Y-108.859
X133.656Y-108.859
X134.15Y-111.2
X134.15Y-126.05
X135.075Y-122.0
X135.3Y-119.3
X135.381Y-112.959
X136.981Y-109.784
X136.981Y-112.959
X137.025Y-128.3
X138.675Y-128.3
X138.85Y-126.0
X139.381Y-108.259
X139.4Y-85.64
X139.5Y-95.74
X141.4Y-131.8
X142.3Y-116.3
X144.4Y-93.3
X145.85Y-125.3
X145.85Y-125.3
T3
X70.52Y-110.25
X70.52Y-112.79
X70.52Y-115.33
X70.52Y-117.87
X70.52Y-120.41
X70.52Y-122.95
X70.52Y-125.49
X70.52Y-128.03
X83.22Y-110.25
X83.22Y-112.79
X83.22Y-115.33
X83.22Y-117.87
X83.22Y-120.41
X83.22Y-122.95
X83.22Y-125.49
X83.22Y-128.03
X95.7Y-110.1
X95.7Y-112.64
X95.7Y-115.18
X95.7Y-117.72
X95.7Y-120.26
X95.7Y-122.8
X95.7Y-125.34
X95.7Y-127.88
X108.4Y-110.1
X108.4Y-112.64
X108.4Y-115.18
X108.4Y-117.72
X108.4Y-120.26
X108.4Y-122.8
X108.4Y-125.34
X108.4Y-127.88
T4
X65.66Y-115.3
X65.66Y-117.84
X65.66Y-120.38
X65.66Y-122.92
X90.9Y-115.2
X90.9Y-117.74
X90.9Y-120.28
X90.9Y-122.82
X113.0Y-130.0
X113.0Y-132.54
X119.881Y-108.359
X119.881Y-112.359
X119.95Y-124.4
X119.95Y-128.4
X121.3Y-96.3
X121.3Y-98.84
X121.6Y-86.125
X121.6Y-88.665
X136.7Y-82.44
X136.7Y-84.98
X136.7Y-87.52
X136.9Y-93.8
X136.9Y-96.34
X136.9Y-98.88
M30
