%TF.GenerationSoftware,KiCad,Pcbnew,9.0.6*%
%TF.CreationDate,2025-11-17T01:57:32-05:00*%
%TF.ProjectId,DoodleBot,446f6f64-6c65-4426-9f74-2e6b69636164,rev?*%
%TF.SameCoordinates,Original*%
%TF.FileFunction,Copper,L2,Bot*%
%TF.FilePolarity,Positive*%
%FSLAX46Y46*%
G04 Gerber Fmt 4.6, Leading zero omitted, Abs format (unit mm)*
G04 Created by KiCad (PCBNEW 9.0.6) date 2025-11-17 01:57:32*
%MOMM*%
%LPD*%
G01*
G04 APERTURE LIST*
%TA.AperFunction,ComponentPad*%
%ADD10C,2.000000*%
%TD*%
%TA.AperFunction,ComponentPad*%
%ADD11R,1.700000X1.700000*%
%TD*%
%TA.AperFunction,ComponentPad*%
%ADD12C,1.700000*%
%TD*%
%TA.AperFunction,HeatsinkPad*%
%ADD13C,0.600000*%
%TD*%
%TA.AperFunction,ComponentPad*%
%ADD14R,1.600000X1.600000*%
%TD*%
%TA.AperFunction,ComponentPad*%
%ADD15O,1.600000X1.600000*%
%TD*%
%TA.AperFunction,ViaPad*%
%ADD16C,0.800000*%
%TD*%
%TA.AperFunction,Conductor*%
%ADD17C,0.250000*%
%TD*%
%TA.AperFunction,Conductor*%
%ADD18C,0.300000*%
%TD*%
%TA.AperFunction,Conductor*%
%ADD19C,0.390000*%
%TD*%
G04 APERTURE END LIST*
D10*
%TO.P,L2,2,2*%
%TO.N,+5V*%
X119881185Y-108359064D03*
%TO.P,L2,1,1*%
%TO.N,Net-(5V_Converter1-FB)*%
X119881185Y-112359064D03*
%TD*%
%TO.P,L1,1,1*%
%TO.N,Net-(3.3V_Converter1-SW)*%
X119950000Y-128400000D03*
%TO.P,L1,2,2*%
%TO.N,+3V3*%
X119950000Y-124400000D03*
%TD*%
D11*
%TO.P,J7,1,Pin_1*%
%TO.N,SERVO_ERASER*%
X136700000Y-82440000D03*
D12*
%TO.P,J7,2,Pin_2*%
%TO.N,+5V*%
X136700000Y-84980000D03*
%TO.P,J7,3,Pin_3*%
%TO.N,GND*%
X136700000Y-87520000D03*
%TD*%
D11*
%TO.P,J6,1,Pin_1*%
%TO.N,SERVO_MARKER*%
X136900000Y-93800000D03*
D12*
%TO.P,J6,2,Pin_2*%
%TO.N,+5V*%
X136900000Y-96340000D03*
%TO.P,J6,3,Pin_3*%
%TO.N,GND*%
X136900000Y-98880000D03*
%TD*%
D11*
%TO.P,J5,1,Pin_1*%
%TO.N,Net-(J5-Pin_1)*%
X121600000Y-86125000D03*
D12*
%TO.P,J5,2,Pin_2*%
%TO.N,GND*%
X121600000Y-88665000D03*
%TD*%
D11*
%TO.P,J4,1,Pin_1*%
%TO.N,BUZZER_LOGIC*%
X121300000Y-96300000D03*
D12*
%TO.P,J4,2,Pin_2*%
%TO.N,GND*%
X121300000Y-98840000D03*
%TD*%
D11*
%TO.P,J2,1,Pin_1*%
%TO.N,Net-(A2-1B)*%
X90900000Y-115200000D03*
D12*
%TO.P,J2,2,Pin_2*%
%TO.N,Net-(A2-1A)*%
X90900000Y-117740000D03*
%TO.P,J2,3,Pin_3*%
%TO.N,Net-(A2-2A)*%
X90900000Y-120280000D03*
%TO.P,J2,4,Pin_4*%
%TO.N,Net-(A2-2B)*%
X90900000Y-122820000D03*
%TD*%
D11*
%TO.P,J1,1,Pin_1*%
%TO.N,Net-(A1-1B)*%
X65660000Y-115300000D03*
D12*
%TO.P,J1,2,Pin_2*%
%TO.N,Net-(A1-1A)*%
X65660000Y-117840000D03*
%TO.P,J1,3,Pin_3*%
%TO.N,Net-(A1-2A)*%
X65660000Y-120380000D03*
%TO.P,J1,4,Pin_4*%
%TO.N,Net-(A1-2B)*%
X65660000Y-122920000D03*
%TD*%
D11*
%TO.P,Battery1,1,+*%
%TO.N,+12V*%
X113000000Y-130000000D03*
D12*
%TO.P,Battery1,2,-*%
%TO.N,GND*%
X113000000Y-132540000D03*
%TD*%
D13*
%TO.P,U1,41,GND*%
%TO.N,GND*%
X89150000Y-86950000D03*
X89150000Y-88350000D03*
X89850000Y-86250000D03*
X89850000Y-87650000D03*
X89850000Y-89050000D03*
X90550000Y-86950000D03*
X90550000Y-88350000D03*
X91250000Y-86250000D03*
X91250000Y-87650000D03*
X91250000Y-89050000D03*
X91950000Y-86950000D03*
X91950000Y-88350000D03*
%TD*%
D14*
%TO.P,A1,1,GND*%
%TO.N,GND*%
X70520000Y-110250000D03*
D15*
%TO.P,A1,2,VDD*%
%TO.N,+3V3*%
X70520000Y-112790000D03*
%TO.P,A1,3,1B*%
%TO.N,Net-(A1-1B)*%
X70520000Y-115330000D03*
%TO.P,A1,4,1A*%
%TO.N,Net-(A1-1A)*%
X70520000Y-117870000D03*
%TO.P,A1,5,2A*%
%TO.N,Net-(A1-2A)*%
X70520000Y-120410000D03*
%TO.P,A1,6,2B*%
%TO.N,Net-(A1-2B)*%
X70520000Y-122950000D03*
%TO.P,A1,7,GND*%
%TO.N,GND*%
X70520000Y-125490000D03*
%TO.P,A1,8,VMOT*%
%TO.N,+12V*%
X70520000Y-128030000D03*
%TO.P,A1,9,~{ENABLE}*%
%TO.N,DRIVER1_ENABLE*%
X83220000Y-128030000D03*
%TO.P,A1,10,MS1*%
%TO.N,+3V3*%
X83220000Y-125490000D03*
%TO.P,A1,11,MS2*%
X83220000Y-122950000D03*
%TO.P,A1,12,MS3*%
X83220000Y-120410000D03*
%TO.P,A1,13,~{RESET}*%
X83220000Y-117870000D03*
%TO.P,A1,14,~{SLEEP}*%
X83220000Y-115330000D03*
%TO.P,A1,15,STEP*%
%TO.N,DRIVER1_STEP*%
X83220000Y-112790000D03*
%TO.P,A1,16,DIR*%
%TO.N,DRIVER1_DIRECTION*%
X83220000Y-110250000D03*
%TD*%
D14*
%TO.P,A2,1,GND*%
%TO.N,GND*%
X95700000Y-110100000D03*
D15*
%TO.P,A2,2,VDD*%
%TO.N,+3V3*%
X95700000Y-112640000D03*
%TO.P,A2,3,1B*%
%TO.N,Net-(A2-1B)*%
X95700000Y-115180000D03*
%TO.P,A2,4,1A*%
%TO.N,Net-(A2-1A)*%
X95700000Y-117720000D03*
%TO.P,A2,5,2A*%
%TO.N,Net-(A2-2A)*%
X95700000Y-120260000D03*
%TO.P,A2,6,2B*%
%TO.N,Net-(A2-2B)*%
X95700000Y-122800000D03*
%TO.P,A2,7,GND*%
%TO.N,GND*%
X95700000Y-125340000D03*
%TO.P,A2,8,VMOT*%
%TO.N,+12V*%
X95700000Y-127880000D03*
%TO.P,A2,9,~{ENABLE}*%
%TO.N,DRIVER2_ENABLE*%
X108400000Y-127880000D03*
%TO.P,A2,10,MS1*%
%TO.N,+3V3*%
X108400000Y-125340000D03*
%TO.P,A2,11,MS2*%
X108400000Y-122800000D03*
%TO.P,A2,12,MS3*%
X108400000Y-120260000D03*
%TO.P,A2,13,~{RESET}*%
X108400000Y-117720000D03*
%TO.P,A2,14,~{SLEEP}*%
X108400000Y-115180000D03*
%TO.P,A2,15,STEP*%
%TO.N,DRIVER2_STEP*%
X108400000Y-112640000D03*
%TO.P,A2,16,DIR*%
%TO.N,DRIVER2_DIRECTION*%
X108400000Y-110100000D03*
%TD*%
D16*
%TO.N,GND*%
X89700000Y-131600000D03*
X89700000Y-128200000D03*
X71900000Y-102200000D03*
X93051554Y-125421882D03*
X98400000Y-125300000D03*
X135300000Y-119300000D03*
X112400000Y-105900000D03*
X115200000Y-117200000D03*
X74600000Y-111700000D03*
X104100000Y-120300000D03*
X73000000Y-94800000D03*
X96100000Y-87200000D03*
X111100000Y-86600000D03*
X127967673Y-93497710D03*
X144400000Y-93300000D03*
X142300000Y-116300000D03*
X141400000Y-131800000D03*
X131200000Y-112600000D03*
X67100000Y-125700000D03*
X73000000Y-125100000D03*
%TO.N,SERVO_MARKER*%
X85000000Y-102000000D03*
X85065000Y-97690000D03*
%TO.N,BUZZER_LOGIC*%
X91415000Y-97690000D03*
X91500000Y-99800000D03*
%TO.N,+5V*%
X139400000Y-85640000D03*
X139500000Y-95740000D03*
%TO.N,+3V3*%
X86500000Y-112640000D03*
X84800000Y-81700000D03*
%TO.N,DRIVER1_STEP*%
X81200000Y-85600000D03*
X80900000Y-112600000D03*
%TO.N,DRIVER1_DIRECTION*%
X81600000Y-109800000D03*
X81600000Y-86825000D03*
%TO.N,DRIVER1_ENABLE*%
X79300000Y-126700000D03*
%TO.N,DRIVER2_ENABLE*%
X88875000Y-97690000D03*
X89600000Y-104600000D03*
X101300000Y-127200000D03*
X100100000Y-105700000D03*
%TO.N,DRIVER2_STEP*%
X82000000Y-94400000D03*
X82200000Y-102100000D03*
X100900000Y-103500000D03*
X102400000Y-111700000D03*
%TO.N,DRIVER2_DIRECTION*%
X87605000Y-97690000D03*
X88100000Y-100000000D03*
X102000000Y-101200000D03*
X103800000Y-109500000D03*
%TO.N,DRIVER1_ENABLE*%
X79450000Y-89150000D03*
%TO.N,LED_LOGIC*%
X102500000Y-98700000D03*
X103900000Y-80200000D03*
%TO.N,Net-(J5-Pin_1)*%
X121600000Y-81125000D03*
%TO.N,Net-(D1-A2)*%
X75000000Y-99500000D03*
X73000000Y-100850000D03*
%TO.N,Net-(3.3V_Converter1-SW)*%
X134150000Y-126050000D03*
%TO.N,+12V*%
X137025000Y-128300000D03*
X132475000Y-126875000D03*
%TO.N,Net-(5V_Converter1-EN)*%
X134150000Y-111200000D03*
X133656185Y-108859064D03*
%TO.N,Net-(5V_Converter1-BOOT)*%
X135381185Y-112959064D03*
%TO.N,Net-(5V_Converter1-FB)*%
X136981185Y-109784064D03*
X136981185Y-112959064D03*
%TO.N,+5V*%
X139381185Y-108259064D03*
X122906185Y-104059064D03*
X122906185Y-105859064D03*
%TO.N,Net-(5V_Converter1-BOOT)*%
X131756185Y-107859064D03*
%TO.N,Net-(5V_Converter1-EN)*%
X133656185Y-108859064D03*
%TO.N,+3V3*%
X122650000Y-122300000D03*
X122650000Y-120100000D03*
X145850000Y-125300000D03*
X145850000Y-125300000D03*
%TO.N,Net-(3.3V_Converter1-EN)*%
X138675000Y-128300000D03*
X138850000Y-126000000D03*
%TO.N,Net-(3.3V_Converter1-SW)*%
X135075000Y-122000000D03*
%TO.N,+12V*%
X132500000Y-111200000D03*
%TD*%
D17*
%TO.N,GND*%
X89700000Y-131600000D02*
X89700000Y-128200000D01*
%TO.N,Net-(3.3V_Converter1-SW)*%
X131450000Y-130500000D02*
X134150000Y-127800000D01*
X134150000Y-127800000D02*
X134150000Y-126050000D01*
X119950000Y-128400000D02*
X122050000Y-130500000D01*
X122050000Y-130500000D02*
X131450000Y-130500000D01*
%TO.N,SERVO_MARKER*%
X85000000Y-102000000D02*
X85000000Y-97755000D01*
X85000000Y-97755000D02*
X85065000Y-97690000D01*
%TO.N,+3V3*%
X86500000Y-112640000D02*
X86500000Y-83400000D01*
X86500000Y-83400000D02*
X84800000Y-81700000D01*
%TO.N,BUZZER_LOGIC*%
X91500000Y-97775000D02*
X91415000Y-97690000D01*
X91500000Y-99800000D02*
X91500000Y-97775000D01*
D18*
%TO.N,+5V*%
X140000000Y-95240000D02*
X139500000Y-95740000D01*
X139400000Y-85640000D02*
X140000000Y-86240000D01*
X140000000Y-86240000D02*
X140000000Y-95240000D01*
D17*
%TO.N,DRIVER1_STEP*%
X80549000Y-86251000D02*
X81200000Y-85600000D01*
X80549000Y-112451000D02*
X80549000Y-86251000D01*
X80698000Y-112600000D02*
X80549000Y-112451000D01*
X80900000Y-112600000D02*
X80698000Y-112600000D01*
%TO.N,DRIVER1_DIRECTION*%
X81000000Y-87425000D02*
X81600000Y-86825000D01*
X81000000Y-109200000D02*
X81000000Y-87425000D01*
X81600000Y-109800000D02*
X81000000Y-109200000D01*
%TO.N,DRIVER1_ENABLE*%
X77900000Y-125400000D02*
X79100000Y-126600000D01*
X77900000Y-90700000D02*
X77900000Y-125400000D01*
X79450000Y-89150000D02*
X77900000Y-90700000D01*
%TO.N,DRIVER2_ENABLE*%
X100700000Y-106300000D02*
X100100000Y-105700000D01*
X100700000Y-126600000D02*
X100700000Y-106300000D01*
X101300000Y-127200000D02*
X100700000Y-126600000D01*
X89000000Y-104000000D02*
X89000000Y-97815000D01*
X89600000Y-104600000D02*
X89000000Y-104000000D01*
X89000000Y-97815000D02*
X88875000Y-97690000D01*
%TO.N,DRIVER2_STEP*%
X81700000Y-101600000D02*
X82200000Y-102100000D01*
X82000000Y-94400000D02*
X81700000Y-94700000D01*
X81700000Y-94700000D02*
X81700000Y-101600000D01*
X101600000Y-110900000D02*
X102400000Y-111700000D01*
X100900000Y-103500000D02*
X101600000Y-104200000D01*
X101600000Y-104200000D02*
X101600000Y-110900000D01*
%TO.N,DRIVER2_DIRECTION*%
X87500000Y-97795000D02*
X87605000Y-97690000D01*
X87500000Y-99400000D02*
X87500000Y-97795000D01*
X88100000Y-100000000D02*
X87500000Y-99400000D01*
X102900000Y-108600000D02*
X103800000Y-109500000D01*
X102900000Y-102100000D02*
X102900000Y-108600000D01*
X102000000Y-101200000D02*
X102900000Y-102100000D01*
%TO.N,LED_LOGIC*%
X103200000Y-98000000D02*
X103200000Y-80900000D01*
X103200000Y-80900000D02*
X103900000Y-80200000D01*
X102500000Y-98700000D02*
X103200000Y-98000000D01*
%TO.N,Net-(J5-Pin_1)*%
X121600000Y-86125000D02*
X121600000Y-81125000D01*
%TO.N,Net-(D1-A2)*%
X74350000Y-99500000D02*
X75000000Y-99500000D01*
X73000000Y-100850000D02*
X74350000Y-99500000D01*
D19*
%TO.N,+12V*%
X132500000Y-119350000D02*
X132500000Y-111200000D01*
X132475000Y-126875000D02*
X132475000Y-119375000D01*
D17*
X132475000Y-119375000D02*
X132500000Y-119350000D01*
%TO.N,Net-(3.3V_Converter1-EN)*%
X138850000Y-128125000D02*
X138850000Y-126000000D01*
X138675000Y-128300000D02*
X138850000Y-128125000D01*
%TO.N,Net-(3.3V_Converter1-SW)*%
X134150000Y-122925000D02*
X135075000Y-122000000D01*
X134150000Y-126050000D02*
X134150000Y-122925000D01*
%TO.N,+12V*%
X132500000Y-111200000D02*
X132750388Y-111450388D01*
%TO.N,Net-(5V_Converter1-EN)*%
X133656185Y-108859064D02*
X134150000Y-109352879D01*
X134150000Y-109352879D02*
X134150000Y-111200000D01*
%TO.N,Net-(5V_Converter1-BOOT)*%
X131756185Y-108206185D02*
X131756185Y-107859064D01*
X134809064Y-112959064D02*
X133350000Y-111500000D01*
X135381185Y-112959064D02*
X134809064Y-112959064D01*
%TO.N,Net-(5V_Converter1-EN)*%
X133656185Y-108906185D02*
X133656185Y-108859064D01*
%TO.N,Net-(5V_Converter1-FB)*%
X136981185Y-112959064D02*
X136981185Y-109784064D01*
D18*
%TO.N,+5V*%
X122906185Y-105859064D02*
X122906185Y-104059064D01*
X122381185Y-105859064D02*
X122906185Y-105859064D01*
X119881185Y-108359064D02*
X122381185Y-105859064D01*
D17*
%TO.N,+3V3*%
X122650000Y-120100000D02*
X122650000Y-122300000D01*
%TO.N,Net-(5V_Converter1-BOOT)*%
X133350000Y-109800000D02*
X131756185Y-108206185D01*
X133350000Y-111500000D02*
X133350000Y-109800000D01*
%TD*%
M02*
