%TF.GenerationSoftware,KiCad,Pcbnew,9.0.6*%
%TF.CreationDate,2025-11-17T01:57:32-05:00*%
%TF.ProjectId,DoodleBot,446f6f64-6c65-4426-9f74-2e6b69636164,rev?*%
%TF.SameCoordinates,Original*%
%TF.FileFunction,Soldermask,Bot*%
%TF.FilePolarity,Negative*%
%FSLAX46Y46*%
G04 Gerber Fmt 4.6, Leading zero omitted, Abs format (unit mm)*
G04 Created by KiCad (PCBNEW 9.0.6) date 2025-11-17 01:57:32*
%MOMM*%
%LPD*%
G01*
G04 APERTURE LIST*
%ADD10C,2.000000*%
%ADD11R,1.700000X1.700000*%
%ADD12C,1.700000*%
%ADD13R,1.600000X1.600000*%
%ADD14O,1.600000X1.600000*%
G04 APERTURE END LIST*
D10*
%TO.C,*%
X65900000Y-80000000D03*
%TD*%
%TO.C,*%
X65900000Y-80000000D03*
%TD*%
%TO.C,*%
X65800000Y-132700000D03*
%TD*%
%TO.C,*%
X65800000Y-132700000D03*
%TD*%
%TO.C,*%
X145100000Y-80100000D03*
%TD*%
%TO.C,*%
X145100000Y-80100000D03*
%TD*%
%TO.C,*%
X145300000Y-132800000D03*
%TD*%
%TO.C,L2*%
X119881185Y-108359064D03*
X119881185Y-112359064D03*
%TD*%
%TO.C,L1*%
X119950000Y-128400000D03*
X119950000Y-124400000D03*
%TD*%
D11*
%TO.C,J7*%
X136700000Y-82440000D03*
D12*
X136700000Y-84980000D03*
X136700000Y-87520000D03*
%TD*%
D11*
%TO.C,J6*%
X136900000Y-93800000D03*
D12*
X136900000Y-96340000D03*
X136900000Y-98880000D03*
%TD*%
D11*
%TO.C,J5*%
X121600000Y-86125000D03*
D12*
X121600000Y-88665000D03*
%TD*%
D11*
%TO.C,J4*%
X121300000Y-96300000D03*
D12*
X121300000Y-98840000D03*
%TD*%
D11*
%TO.C,J2*%
X90900000Y-115200000D03*
D12*
X90900000Y-117740000D03*
X90900000Y-120280000D03*
X90900000Y-122820000D03*
%TD*%
D11*
%TO.C,J1*%
X65660000Y-115300000D03*
D12*
X65660000Y-117840000D03*
X65660000Y-120380000D03*
X65660000Y-122920000D03*
%TD*%
D11*
%TO.C,Battery1*%
X113000000Y-130000000D03*
D12*
X113000000Y-132540000D03*
%TD*%
D13*
%TO.C,A1*%
X70520000Y-110250000D03*
D14*
X70520000Y-112790000D03*
X70520000Y-115330000D03*
X70520000Y-117870000D03*
X70520000Y-120410000D03*
X70520000Y-122950000D03*
X70520000Y-125490000D03*
X70520000Y-128030000D03*
X83220000Y-128030000D03*
X83220000Y-125490000D03*
X83220000Y-122950000D03*
X83220000Y-120410000D03*
X83220000Y-117870000D03*
X83220000Y-115330000D03*
X83220000Y-112790000D03*
X83220000Y-110250000D03*
%TD*%
D13*
%TO.C,A2*%
X95700000Y-110100000D03*
D14*
X95700000Y-112640000D03*
X95700000Y-115180000D03*
X95700000Y-117720000D03*
X95700000Y-120260000D03*
X95700000Y-122800000D03*
X95700000Y-125340000D03*
X95700000Y-127880000D03*
X108400000Y-127880000D03*
X108400000Y-125340000D03*
X108400000Y-122800000D03*
X108400000Y-120260000D03*
X108400000Y-117720000D03*
X108400000Y-115180000D03*
X108400000Y-112640000D03*
X108400000Y-110100000D03*
%TD*%
M02*
