%TF.GenerationSoftware,KiCad,Pcbnew,9.0.6*%
%TF.CreationDate,2025-11-17T01:57:32-05:00*%
%TF.ProjectId,DoodleBot,446f6f64-6c65-4426-9f74-2e6b69636164,rev?*%
%TF.SameCoordinates,Original*%
%TF.FileFunction,Paste,Top*%
%TF.FilePolarity,Positive*%
%FSLAX46Y46*%
G04 Gerber Fmt 4.6, Leading zero omitted, Abs format (unit mm)*
G04 Created by KiCad (PCBNEW 9.0.6) date 2025-11-17 01:57:32*
%MOMM*%
%LPD*%
G01*
G04 APERTURE LIST*
G04 Aperture macros list*
%AMRoundRect*
0 Rectangle with rounded corners*
0 $1 Rounding radius*
0 $2 $3 $4 $5 $6 $7 $8 $9 X,Y pos of 4 corners*
0 Add a 4 corners polygon primitive as box body*
4,1,4,$2,$3,$4,$5,$6,$7,$8,$9,$2,$3,0*
0 Add four circle primitives for the rounded corners*
1,1,$1+$1,$2,$3*
1,1,$1+$1,$4,$5*
1,1,$1+$1,$6,$7*
1,1,$1+$1,$8,$9*
0 Add four rect primitives between the rounded corners*
20,1,$1+$1,$2,$3,$4,$5,0*
20,1,$1+$1,$4,$5,$6,$7,0*
20,1,$1+$1,$6,$7,$8,$9,0*
20,1,$1+$1,$8,$9,$2,$3,0*%
G04 Aperture macros list end*
%ADD10R,1.380000X0.450000*%
%ADD11R,1.300000X1.650000*%
%ADD12R,1.550000X1.425000*%
%ADD13R,1.900000X1.800000*%
%ADD14R,1.900000X1.000000*%
%ADD15R,1.000000X1.550000*%
%ADD16RoundRect,0.218750X-0.256250X0.218750X-0.256250X-0.218750X0.256250X-0.218750X0.256250X0.218750X0*%
%ADD17RoundRect,0.218750X0.256250X-0.218750X0.256250X0.218750X-0.256250X0.218750X-0.256250X-0.218750X0*%
%ADD18RoundRect,0.225000X-0.250000X0.225000X-0.250000X-0.225000X0.250000X-0.225000X0.250000X0.225000X0*%
%ADD19RoundRect,0.225000X0.225000X0.250000X-0.225000X0.250000X-0.225000X-0.250000X0.225000X-0.250000X0*%
%ADD20RoundRect,0.200000X0.275000X-0.200000X0.275000X0.200000X-0.275000X0.200000X-0.275000X-0.200000X0*%
%ADD21RoundRect,0.200000X-0.275000X0.200000X-0.275000X-0.200000X0.275000X-0.200000X0.275000X0.200000X0*%
%ADD22RoundRect,0.200000X-0.200000X-0.275000X0.200000X-0.275000X0.200000X0.275000X-0.200000X0.275000X0*%
%ADD23RoundRect,0.150000X-0.512500X-0.150000X0.512500X-0.150000X0.512500X0.150000X-0.512500X0.150000X0*%
%ADD24RoundRect,0.225000X-0.225000X-0.250000X0.225000X-0.250000X0.225000X0.250000X-0.225000X0.250000X0*%
%ADD25RoundRect,0.225000X0.250000X-0.225000X0.250000X0.225000X-0.250000X0.225000X-0.250000X-0.225000X0*%
%ADD26R,0.900000X0.900000*%
%ADD27R,1.500000X0.900000*%
%ADD28R,0.900000X1.500000*%
G04 APERTURE END LIST*
D10*
%TO.C,J3*%
X69485000Y-99387500D03*
X69485000Y-100037500D03*
X69485000Y-100687500D03*
X69485000Y-101337500D03*
X69485000Y-101987500D03*
D11*
X66825000Y-97312500D03*
D12*
X69400000Y-98200000D03*
D13*
X66825000Y-99537500D03*
D14*
X66825000Y-102237500D03*
D12*
X69400000Y-103175000D03*
D11*
X66825000Y-104062500D03*
%TD*%
D15*
%TO.C,RESET1*%
X72850000Y-86275000D03*
X72850000Y-91525000D03*
X71150000Y-86275000D03*
X71150000Y-91525000D03*
%TD*%
D16*
%TO.C,D1*%
X75050000Y-99450000D03*
X75050000Y-97875000D03*
%TD*%
D17*
%TO.C,D2*%
X75050000Y-101100000D03*
X75050000Y-102675000D03*
%TD*%
D18*
%TO.C,C17*%
X69200000Y-81200000D03*
X69200000Y-82750000D03*
%TD*%
%TO.C,C18*%
X73500000Y-81200000D03*
X73500000Y-82750000D03*
%TD*%
D19*
%TO.C,C7*%
X124456185Y-105859064D03*
X122906185Y-105859064D03*
%TD*%
%TO.C,C2*%
X136650000Y-122000000D03*
X135100000Y-122000000D03*
%TD*%
D20*
%TO.C,R4*%
X136981185Y-108134064D03*
X136981185Y-109784064D03*
%TD*%
D21*
%TO.C,R3*%
X139381185Y-109784064D03*
X139381185Y-108134064D03*
%TD*%
D22*
%TO.C,R8*%
X135306185Y-108859064D03*
X133656185Y-108859064D03*
%TD*%
D23*
%TO.C,5V_Converter1*%
X131756185Y-107859064D03*
X131756185Y-108809064D03*
X131756185Y-109759064D03*
X129481185Y-109759064D03*
X129481185Y-108809064D03*
X129481185Y-107859064D03*
%TD*%
D19*
%TO.C,C8*%
X122906185Y-104059064D03*
X124456185Y-104059064D03*
%TD*%
D24*
%TO.C,C6*%
X136956185Y-112959064D03*
X135406185Y-112959064D03*
%TD*%
D25*
%TO.C,C5*%
X126781185Y-108159064D03*
X126781185Y-109709064D03*
%TD*%
D15*
%TO.C,BOOT1*%
X108400000Y-91300000D03*
X108400000Y-96550000D03*
X106700000Y-91300000D03*
X106700000Y-96550000D03*
%TD*%
D22*
%TO.C,R5*%
X138675000Y-128300000D03*
X137025000Y-128300000D03*
%TD*%
%TO.C,R6*%
X140500000Y-126000000D03*
X138850000Y-126000000D03*
%TD*%
D21*
%TO.C,R11*%
X121600000Y-79475000D03*
X121600000Y-81125000D03*
%TD*%
D20*
%TO.C,R1*%
X143475000Y-126925000D03*
X143475000Y-125275000D03*
%TD*%
D19*
%TO.C,C4*%
X124200000Y-122300000D03*
X122650000Y-122300000D03*
%TD*%
%TO.C,C3*%
X124200000Y-120100000D03*
X122650000Y-120100000D03*
%TD*%
D25*
%TO.C,C1*%
X128775000Y-126875000D03*
X128775000Y-125325000D03*
%TD*%
D23*
%TO.C,3.3V_Converter1*%
X134137500Y-125050000D03*
X134137500Y-126000000D03*
X134137500Y-126950000D03*
X136412500Y-126950000D03*
X136412500Y-126000000D03*
X136412500Y-125050000D03*
%TD*%
D21*
%TO.C,R2*%
X145875000Y-125275000D03*
X145875000Y-126925000D03*
%TD*%
D22*
%TO.C,R7*%
X132500000Y-111200000D03*
X134150000Y-111200000D03*
%TD*%
D26*
%TO.C,U1*%
X89150000Y-86250000D03*
X89150000Y-87650000D03*
X89150000Y-89050000D03*
X90550000Y-86250000D03*
X90550000Y-87650000D03*
X90550000Y-89050000D03*
X91950000Y-86250000D03*
X91950000Y-87650000D03*
X91950000Y-89050000D03*
D27*
X83300000Y-79930000D03*
X83300000Y-81200000D03*
X83300000Y-82470000D03*
X83300000Y-83740000D03*
X83300000Y-85010000D03*
X83300000Y-86280000D03*
X83300000Y-87550000D03*
X83300000Y-88820000D03*
X83300000Y-90090000D03*
X83300000Y-91360000D03*
X83300000Y-92630000D03*
X83300000Y-93900000D03*
X83300000Y-95170000D03*
X83300000Y-96440000D03*
D28*
X85065000Y-97690000D03*
X86335000Y-97690000D03*
X87605000Y-97690000D03*
X88875000Y-97690000D03*
X90145000Y-97690000D03*
X91415000Y-97690000D03*
X92685000Y-97690000D03*
X93955000Y-97690000D03*
X95225000Y-97690000D03*
X96495000Y-97690000D03*
X97765000Y-97690000D03*
X99035000Y-97690000D03*
D27*
X100800000Y-96440000D03*
X100800000Y-95170000D03*
X100800000Y-93900000D03*
X100800000Y-92630000D03*
X100800000Y-91360000D03*
X100800000Y-90090000D03*
X100800000Y-88820000D03*
X100800000Y-87550000D03*
X100800000Y-86280000D03*
X100800000Y-85010000D03*
X100800000Y-83740000D03*
X100800000Y-82470000D03*
X100800000Y-81200000D03*
X100800000Y-79930000D03*
%TD*%
M02*
