%TF.GenerationSoftware,KiCad,Pcbnew,9.0.6*%
%TF.CreationDate,2025-11-17T01:57:32-05:00*%
%TF.ProjectId,DoodleBot,446f6f64-6c65-4426-9f74-2e6b69636164,rev?*%
%TF.SameCoordinates,Original*%
%TF.FileFunction,OtherDrawing,Comment*%
%FSLAX46Y46*%
G04 Gerber Fmt 4.6, Leading zero omitted, Abs format (unit mm)*
G04 Created by KiCad (PCBNEW 9.0.6) date 2025-11-17 01:57:32*
%MOMM*%
%LPD*%
G01*
G04 APERTURE LIST*
%ADD10C,0.040000*%
G04 APERTURE END LIST*
D10*
X65537967Y-102058928D02*
X65137967Y-102058928D01*
X65137967Y-102058928D02*
X65137967Y-101906547D01*
X65137967Y-101906547D02*
X65157015Y-101868452D01*
X65157015Y-101868452D02*
X65176062Y-101849405D01*
X65176062Y-101849405D02*
X65214158Y-101830357D01*
X65214158Y-101830357D02*
X65271300Y-101830357D01*
X65271300Y-101830357D02*
X65309396Y-101849405D01*
X65309396Y-101849405D02*
X65328443Y-101868452D01*
X65328443Y-101868452D02*
X65347491Y-101906547D01*
X65347491Y-101906547D02*
X65347491Y-102058928D01*
X65499872Y-101430357D02*
X65518920Y-101449405D01*
X65518920Y-101449405D02*
X65537967Y-101506547D01*
X65537967Y-101506547D02*
X65537967Y-101544643D01*
X65537967Y-101544643D02*
X65518920Y-101601786D01*
X65518920Y-101601786D02*
X65480824Y-101639881D01*
X65480824Y-101639881D02*
X65442729Y-101658928D01*
X65442729Y-101658928D02*
X65366539Y-101677976D01*
X65366539Y-101677976D02*
X65309396Y-101677976D01*
X65309396Y-101677976D02*
X65233205Y-101658928D01*
X65233205Y-101658928D02*
X65195110Y-101639881D01*
X65195110Y-101639881D02*
X65157015Y-101601786D01*
X65157015Y-101601786D02*
X65137967Y-101544643D01*
X65137967Y-101544643D02*
X65137967Y-101506547D01*
X65137967Y-101506547D02*
X65157015Y-101449405D01*
X65157015Y-101449405D02*
X65176062Y-101430357D01*
X65328443Y-101125595D02*
X65347491Y-101068452D01*
X65347491Y-101068452D02*
X65366539Y-101049405D01*
X65366539Y-101049405D02*
X65404634Y-101030357D01*
X65404634Y-101030357D02*
X65461777Y-101030357D01*
X65461777Y-101030357D02*
X65499872Y-101049405D01*
X65499872Y-101049405D02*
X65518920Y-101068452D01*
X65518920Y-101068452D02*
X65537967Y-101106547D01*
X65537967Y-101106547D02*
X65537967Y-101258928D01*
X65537967Y-101258928D02*
X65137967Y-101258928D01*
X65137967Y-101258928D02*
X65137967Y-101125595D01*
X65137967Y-101125595D02*
X65157015Y-101087500D01*
X65157015Y-101087500D02*
X65176062Y-101068452D01*
X65176062Y-101068452D02*
X65214158Y-101049405D01*
X65214158Y-101049405D02*
X65252253Y-101049405D01*
X65252253Y-101049405D02*
X65290348Y-101068452D01*
X65290348Y-101068452D02*
X65309396Y-101087500D01*
X65309396Y-101087500D02*
X65328443Y-101125595D01*
X65328443Y-101125595D02*
X65328443Y-101258928D01*
X65328443Y-100554166D02*
X65328443Y-100420833D01*
X65537967Y-100363690D02*
X65537967Y-100554166D01*
X65537967Y-100554166D02*
X65137967Y-100554166D01*
X65137967Y-100554166D02*
X65137967Y-100363690D01*
X65537967Y-100020833D02*
X65137967Y-100020833D01*
X65518920Y-100020833D02*
X65537967Y-100058928D01*
X65537967Y-100058928D02*
X65537967Y-100135119D01*
X65537967Y-100135119D02*
X65518920Y-100173214D01*
X65518920Y-100173214D02*
X65499872Y-100192261D01*
X65499872Y-100192261D02*
X65461777Y-100211309D01*
X65461777Y-100211309D02*
X65347491Y-100211309D01*
X65347491Y-100211309D02*
X65309396Y-100192261D01*
X65309396Y-100192261D02*
X65290348Y-100173214D01*
X65290348Y-100173214D02*
X65271300Y-100135119D01*
X65271300Y-100135119D02*
X65271300Y-100058928D01*
X65271300Y-100058928D02*
X65290348Y-100020833D01*
X65271300Y-99658928D02*
X65595110Y-99658928D01*
X65595110Y-99658928D02*
X65633205Y-99677975D01*
X65633205Y-99677975D02*
X65652253Y-99697023D01*
X65652253Y-99697023D02*
X65671300Y-99735118D01*
X65671300Y-99735118D02*
X65671300Y-99792261D01*
X65671300Y-99792261D02*
X65652253Y-99830356D01*
X65518920Y-99658928D02*
X65537967Y-99697023D01*
X65537967Y-99697023D02*
X65537967Y-99773214D01*
X65537967Y-99773214D02*
X65518920Y-99811309D01*
X65518920Y-99811309D02*
X65499872Y-99830356D01*
X65499872Y-99830356D02*
X65461777Y-99849404D01*
X65461777Y-99849404D02*
X65347491Y-99849404D01*
X65347491Y-99849404D02*
X65309396Y-99830356D01*
X65309396Y-99830356D02*
X65290348Y-99811309D01*
X65290348Y-99811309D02*
X65271300Y-99773214D01*
X65271300Y-99773214D02*
X65271300Y-99697023D01*
X65271300Y-99697023D02*
X65290348Y-99658928D01*
X65518920Y-99316070D02*
X65537967Y-99354166D01*
X65537967Y-99354166D02*
X65537967Y-99430356D01*
X65537967Y-99430356D02*
X65518920Y-99468451D01*
X65518920Y-99468451D02*
X65480824Y-99487499D01*
X65480824Y-99487499D02*
X65328443Y-99487499D01*
X65328443Y-99487499D02*
X65290348Y-99468451D01*
X65290348Y-99468451D02*
X65271300Y-99430356D01*
X65271300Y-99430356D02*
X65271300Y-99354166D01*
X65271300Y-99354166D02*
X65290348Y-99316070D01*
X65290348Y-99316070D02*
X65328443Y-99297023D01*
X65328443Y-99297023D02*
X65366539Y-99297023D01*
X65366539Y-99297023D02*
X65404634Y-99487499D01*
M02*
